<svg width="136" height="30" fill="none" xmlns="http://www.w3.org/2000/svg"><g clip-path="url(#clip0_1642_1501)"><path fill-rule="evenodd" clip-rule="evenodd" d="M15.589.083a14.916 14.916 0 0114.35 9.756 14.925 14.925 0 01.392 9.104 2.493 2.493 0 11-4.81-1.317 9.938 9.938 0 00-3.996-10.842A9.93 9.93 0 006.471 12.01a9.938 9.938 0 003.577 10.987 9.93 9.93 0 005.748 1.938 2.493 2.493 0 01-.074 4.987 14.917 14.917 0 01-13.965-10.3 14.926 14.926 0 015.224-16.55L8.48 5.064 6.981 3.07A14.916 14.916 0 0115.59.083z" fill="#121920"/><path d="M27.163 24.71a3.78 3.78 0 11-7.56 0 3.78 3.78 0 017.56 0z" fill="#F95A59"/><path fill-rule="evenodd" clip-rule="evenodd" d="M61.457 23.958h-4.98l-.704-.92c-.974.379-1.84.65-2.598.866-.758.162-1.57.27-2.49.27-3.03 0-5.412-.757-7.09-2.219-1.786-1.515-2.652-3.843-2.652-6.82 0-3.03.811-5.358 2.381-6.928 1.624-1.57 4.06-2.382 7.361-2.382 3.194 0 5.63.866 7.308 2.544 1.461 1.462 2.165 3.356 2.165 5.63 0 1.678-.054 2.923-.217 3.68-.216 1.191-.758 2.328-1.515 3.356l3.03 2.923zm-5.684-8.985c0-1.624-.324-2.923-1.028-3.951-.866-1.3-2.273-1.949-4.114-1.949-1.732 0-3.085.487-3.951 1.516-.866.974-1.3 2.435-1.3 4.33 0 2.11.488 3.68 1.517 4.655.92.866 2.273 1.299 4.059 1.299 1.624 0 2.815-.487 3.627-1.462.812-1.028 1.19-2.49 1.19-4.438zm24.467 3.41c0 1.57-.542 2.869-1.57 3.951-1.029 1.083-2.328 1.57-3.952 1.57H62.27V20.71h10.338c.704 0 1.3-.162 1.732-.487.542-.379.812-.866.812-1.515 0-1.516-1.082-2.274-3.193-2.274h-5.196c-1.516 0-2.815-.487-3.952-1.407-1.136-.92-1.678-2.11-1.678-3.572 0-1.57.542-2.87 1.678-3.843 1.083-.975 2.544-1.462 4.385-1.462h11.962v3.031h-10.61c-.486 0-.974.217-1.406.596-.542.379-.758.866-.758 1.407 0 .595.216 1.137.703 1.516.487.433 1.029.595 1.678.595h5.738c1.786 0 3.193.487 4.222 1.407 1.028.92 1.515 2.165 1.515 3.681zm20.459-3.41c0 3.464-.974 5.9-2.868 7.415-1.57 1.191-3.843 1.787-6.766 1.787-3.302 0-5.738-.704-7.308-2.057-1.732-1.516-2.598-3.951-2.598-7.307 0-2.76.758-4.926 2.328-6.442 1.678-1.678 4.168-2.49 7.524-2.49 3.68 0 6.224.812 7.74 2.382 1.299 1.407 1.948 3.627 1.948 6.712zm-4.546-.108c0-1.732-.433-3.14-1.245-4.168-.92-1.137-2.328-1.732-4.114-1.732s-3.14.595-4.06 1.84c-.757 1.029-1.136 2.382-1.136 4.006 0 1.894.325 3.301.92 4.221.866 1.245 2.382 1.895 4.71 1.895 1.948 0 3.3-.595 4.059-1.84.595-.866.866-2.328.866-4.222zm22.354 1.623h-12.233v7.362h-4.384V12.97c0-.65.108-1.407.379-2.219.487-1.461 1.407-2.544 2.76-3.302 1.57-.866 4.168-1.299 7.74-1.299h22.896v2.977h-6.603V23.85h-4.114V9.127c-4.222 0-8.227-.054-12.449-.054-1.624 0-2.761.108-3.41.27-1.137.271-1.895.92-2.382 1.841-.379.704-.541 1.462-.541 2.328h12.341v2.976z" fill="#F95A59"/></g><defs><clipPath id="clip0_1642_1501"><path fill="#fff" transform="translate(.943)" d="M0 0h135v30H0z"/></clipPath></defs></svg>